<svg xmlns="http://www.w3.org/2000/svg" width="1129" height="64" viewBox="0 0 1129 64" fill="none"><path d="M478.508 43.0977V38.1539C481.324 39.0397 483.816 39.4826 485.984 39.4826C488.974 39.4799 490.47 38.6867 490.47 37.1029C490.479 36.5357 490.239 35.9924 489.815 35.6156C489.372 35.1925 488.231 34.5996 486.392 33.8368C483.094 32.4883 480.944 31.3355 479.943 30.3783C478.648 29.1171 478 27.524 478 25.5991C478 23.1203 478.944 21.2284 480.832 19.9236C482.72 18.6187 485.152 17.9788 488.13 18.004C489.782 18.004 492.173 18.308 495.302 18.9162V23.6755C492.975 22.7461 490.817 22.2814 488.826 22.2814C486.015 22.2814 484.61 23.0548 484.61 24.6016C484.616 25.1926 484.941 25.732 485.458 26.0175C485.924 26.3124 487.219 26.9377 489.345 27.8935C492.403 29.2513 494.439 30.4312 495.453 31.4333C496.656 32.6231 497.258 34.1633 497.258 36.0538C497.258 38.772 496.078 40.843 493.718 42.2668C491.801 43.4249 489.322 44.0026 486.281 44C483.664 43.9949 481.057 43.6888 478.51 43.0878L478.508 43.0977ZM501.214 18.4422H508.222V43.5003H501.214V18.4422ZM514.629 43.5003V18.4422H532.582V22.9755H521.378V28.6332H531.134V32.7659H521.378V38.7151H532.873V43.5141L514.629 43.5003ZM537.44 43.5003V18.4422H546.517L552.835 34.4535L559.288 18.4422H567.908V43.5003H561.271V25.7518L553.922 43.7422H549.561L542.352 25.7518V43.5003H537.44ZM574.329 43.5003V18.4422H592.282V22.9755H581.078V28.6332H590.835V32.7659H581.078V38.7151H592.574V43.5141L574.329 43.5003ZM597.178 43.5003V18.4422H605.293L613.9 35.219V18.4422H618.831V43.5003H610.947L602.112 26.4994V43.5003H597.178ZM623.803 43.0957V38.1519C626.596 39.0377 629.089 39.4806 631.279 39.4806C634.272 39.4806 635.769 38.69 635.769 37.1088C635.779 36.5456 635.551 36.0043 635.134 35.6215C634.685 35.1958 633.536 34.6055 631.688 33.8507C628.4 32.5061 626.25 31.3493 625.239 30.3803C623.943 29.1283 623.295 27.5286 623.295 25.5813C623.295 23.1143 624.239 21.2324 626.127 19.9355C627.991 18.6452 630.424 18 633.425 18C635.11 18 637.294 18.2684 639.975 18.8051L640.594 18.9122V23.6716C638.267 22.7422 636.1 22.2775 634.093 22.2775C631.293 22.2775 629.894 23.0509 629.895 24.5977C629.901 25.1886 630.224 25.728 630.742 26.0136C631.191 26.2978 632.495 26.9231 634.654 27.8896C637.692 29.2473 639.722 30.4279 640.742 31.4313C641.939 32.6212 642.537 34.1613 642.537 36.0519C642.537 38.77 641.362 40.841 639.013 42.2648C637.096 43.4229 634.611 44.0007 631.557 43.998C628.939 43.994 626.331 43.6867 623.783 43.0858L623.803 43.0957Z" fill="#334155"></path><path d="M58.7602 49.4666H50.7116L55.7419 18.5524H63.7913L58.7602 49.4666ZM43.9406 18.5524L36.2674 39.8154L35.3595 35.2367L35.3603 35.2383L32.6521 21.3359C32.6521 21.3359 32.3246 18.5524 28.8341 18.5524H16.1488L16 19.0758C16 19.0758 19.8792 19.8829 24.4191 22.6093L31.4117 49.4674H39.7976L52.6028 18.5524H43.9406ZM107.247 49.4666H114.637L108.194 18.5516H101.724C98.7361 18.5516 98.0084 20.8554 98.0084 20.8554L86.0045 49.4666H94.3946L96.0725 44.8746H106.304L107.247 49.4666ZM98.3904 38.5312L102.619 26.9623L104.998 38.5312H98.3904ZM86.6338 25.9866L87.7824 19.3479C87.7824 19.3479 84.2382 18 80.5434 18C76.5493 18 67.0643 19.7457 67.0643 28.2342C67.0643 36.2207 78.1966 36.32 78.1966 40.515C78.1966 44.7101 68.2113 43.9584 64.9159 41.313L63.7193 48.2543C63.7193 48.2543 67.3132 50 72.8041 50C78.2966 50 86.5826 47.1562 86.5826 39.416C86.5826 31.3782 75.3502 30.6298 75.3502 27.1352C75.3511 23.6397 83.1896 24.0887 86.6338 25.9866Z" fill="#334155"></path><path d="M207.365 40.05C206.373 42.253 205.895 43.2377 204.619 45.1819C202.833 47.8988 200.314 51.2913 197.202 51.3128C194.431 51.338 193.716 49.5052 189.953 49.5375C186.194 49.5555 185.411 51.3488 182.636 51.32C179.521 51.2913 177.138 48.2366 175.352 45.5233C170.356 37.9153 169.828 28.9956 172.915 24.2519C175.1 20.8881 178.554 18.9116 181.799 18.9116C185.105 18.9116 187.182 20.7264 189.914 20.7264C192.566 20.7264 194.179 18.908 198.003 18.908C200.893 18.908 203.947 20.482 206.132 23.1989C198.988 27.1161 200.149 37.3188 207.365 40.05ZM195.099 15.8713C196.49 14.0852 197.547 11.5659 197.162 9C194.895 9.15453 192.242 10.6028 190.694 12.4788C189.288 14.1894 188.124 16.7266 188.577 19.1811C191.053 19.2602 193.615 17.7831 195.099 15.8713Z" fill="#334155"></path><path d="M864.409 54.9193V49.2698H868.017V49.9812H865.15V51.6671H867.715V52.3666H865.15V54.2079H868.163V54.9193M873.723 50.5611L873.062 50.8122C872.877 50.2323 872.327 49.8587 871.714 49.8587C871.06 49.8587 870.623 50.2054 870.623 50.7524C870.623 52.0258 873.78 51.3323 873.78 53.344C873.78 54.2557 872.967 54.997 871.762 54.997C870.722 54.997 869.992 54.5457 869.568 53.6399L870.19 53.2603C870.432 53.8014 870.85 54.3185 871.78 54.3185C872.587 54.3185 873.047 53.9149 873.047 53.3321C873.047 52.1125 869.891 52.7103 869.891 50.7913C869.891 49.6046 870.931 49.1861 871.699 49.1861C872.569 49.1891 873.415 49.5867 873.723 50.5611ZM874.91 49.2698H879.33V49.9812H877.492V54.9193H876.748V49.9812H874.91V49.2698ZM881.205 54.4918C881.205 54.7668 881.01 54.9671 880.738 54.9671C880.463 54.9671 880.272 54.7639 880.272 54.4918C880.272 54.2318 880.457 54.0166 880.738 54.0166C881.019 54.0166 881.205 54.2348 881.205 54.4918ZM886.869 54.9193H886.143V49.9245H885.431V49.2698H886.869M892.68 50.7315C892.68 51.2965 892.399 51.7 891.906 51.966C892.429 52.2081 892.859 52.6266 892.859 53.2902C892.859 54.2647 892.142 54.9761 890.875 54.9761C889.607 54.9761 888.89 54.2886 888.89 53.2902C888.89 52.6296 889.317 52.2081 889.834 51.966C889.35 51.7 889.069 51.2965 889.069 50.7315C889.069 49.7242 889.882 49.216 890.878 49.216C891.864 49.216 892.68 49.7242 892.68 50.7315ZM892.121 53.2992C892.121 52.6206 891.523 52.2799 890.869 52.2799C890.214 52.2799 889.619 52.6206 889.619 53.2992C889.619 54.0166 890.166 54.3633 890.869 54.3633C891.574 54.3633 892.121 54.0166 892.121 53.2992ZM891.978 50.7734C891.978 50.1755 891.583 49.8288 890.872 49.8288C890.16 49.8288 889.766 50.1755 889.766 50.7734C889.766 51.3293 890.274 51.6701 890.872 51.6701C891.428 51.6701 891.978 51.3712 891.978 50.7734ZM898.264 50.7315C898.264 51.2965 897.983 51.7 897.489 51.966C898.013 52.2081 898.443 52.6266 898.443 53.2902C898.443 54.2647 897.723 54.9761 896.458 54.9761C895.191 54.9761 894.473 54.2886 894.473 53.2902C894.473 52.6296 894.901 52.2081 895.418 51.966C894.934 51.7 894.653 51.2965 894.653 50.7315C894.653 49.7242 895.466 49.216 896.461 49.216C897.448 49.216 898.264 49.7242 898.264 50.7315ZM897.708 53.2992C897.708 52.6206 897.11 52.2799 896.455 52.2799C895.801 52.2799 895.203 52.6206 895.203 53.2992C895.203 54.0166 895.75 54.3633 896.455 54.3633C897.158 54.3633 897.708 54.0166 897.708 53.2992ZM897.561 50.7734C897.561 50.1755 897.167 49.8288 896.455 49.8288C895.744 49.8288 895.349 50.1755 895.349 50.7734C895.349 51.3293 895.857 51.6701 896.455 51.6701C897.011 51.6701 897.561 51.3712 897.561 50.7734ZM902.437 53.5891H899.773V52.8777L902.428 49.2698H903.139V52.9166H903.746V53.5861H903.139V54.9163H902.437V53.5891ZM902.437 52.9196V50.2652L900.523 52.9196H902.437ZM871.478 11.3467V38.3386H869.003V16.2967L860.11 33.544H858.368L849.475 16.3356V38.3386H847V11.3467H849.592L859.258 29.984L868.925 11.3467H871.478ZM897.735 38.7242L893.248 33.9296C891.625 36.4823 889.419 38.3386 885.784 38.3386C881.106 38.3386 877.663 35.0924 877.663 31.1079C877.663 27.784 879.713 25.7304 883.659 23.4886C881.417 21.2467 880.176 19.3905 880.176 17.1875C880.176 13.9772 882.885 11.4245 886.17 11.4245C889.652 11.4245 892.241 13.9772 892.241 17.1875C892.241 20.2812 889.804 22.3677 887.368 23.9549L892.937 30.0258L896.225 24.6902L898.198 25.9277L894.563 31.8462L899.552 37.1429L897.735 38.7242ZM885.207 25.1894C881.689 27.1234 880.144 28.6717 880.144 31.066C880.144 33.8101 882.619 36.0937 885.79 36.0937C888.654 36.0937 890.121 34.7785 891.706 32.2258L885.207 25.1894ZM882.616 17.1875C882.616 18.694 883.62 19.9704 885.826 22.3318C888.417 20.8223 889.846 19.238 889.846 17.1875C889.846 15.1758 888.495 13.5916 886.173 13.5916C884.008 13.5886 882.616 15.2894 882.616 17.1875ZM920.473 17.1098L918.231 17.9228C917.34 15.1011 914.826 13.2837 911.425 13.2837C907.712 13.2837 905.276 15.1399 905.276 18.2696C905.276 24.9981 920.667 21.441 920.667 30.9136C920.667 35.4391 917.032 38.6076 911.619 38.6076C906.591 38.6076 903.575 36.2103 901.489 32.3812L903.575 31.1049C904.968 34.0432 907.518 36.3269 911.386 36.3269C915.87 36.3269 918.192 34.2764 918.192 30.8747C918.192 24.1073 902.801 27.4342 902.801 18.2307C902.801 12.7785 907.712 11 911.347 11C915.445 11 919.158 12.8533 920.473 17.1098Z" fill="#334155"></path><path d="M279.996 14C270.618 14 263 21.6181 263 30.9958C263 40.3734 270.618 47.9915 279.996 47.9915C289.373 47.9915 296.991 40.3734 296.991 30.9958C296.991 21.6181 289.373 14 279.996 14ZM279.996 46.2882C271.554 46.2882 264.703 39.4188 264.703 30.9958C264.703 22.5727 271.554 15.7033 279.996 15.7033C288.437 15.7033 295.288 22.5727 295.288 30.9958C295.288 39.4188 288.437 46.2882 279.996 46.2882Z" fill="#334155"></path><path d="M286.06 20.1013C286.003 20.0639 285.929 20.0452 285.854 20.0452C285.629 20.0452 285.461 20.2136 285.461 20.4382V25.7541C285.461 25.9413 285.311 26.091 285.124 26.091H274.829C274.642 26.091 274.511 25.9413 274.492 25.7541V20.4382C274.492 20.3634 274.473 20.3072 274.436 20.2323C274.324 20.0452 274.08 19.989 273.893 20.1013C270.093 22.441 267.791 26.5028 267.791 30.9951C267.791 35.4873 270.093 39.5491 273.93 41.8888C273.987 41.9263 274.061 41.945 274.136 41.945C274.361 41.945 274.529 41.7765 274.529 41.5519V36.2361C274.529 36.0489 274.679 35.9179 274.866 35.8991H285.161C285.348 35.8991 285.498 36.0489 285.498 36.2361V41.5519C285.498 41.6268 285.517 41.6829 285.554 41.7578C285.666 41.945 285.91 42.0011 286.097 41.8888C289.934 39.5491 292.236 35.4873 292.236 30.9951C292.236 26.5028 289.897 22.441 286.06 20.1013ZM272.545 37.6586L272.601 38.295L272.19 37.7896C269.026 33.8027 269.026 28.1687 272.19 24.1818L272.545 23.7326L272.601 23.6764L272.545 24.3315C272.489 24.8556 272.47 25.3985 272.47 25.9413V36.0302C272.47 36.573 272.508 37.1158 272.545 37.6586ZM285.461 33.5407C285.461 33.7279 285.311 33.8776 285.124 33.8776H274.829C274.642 33.8776 274.511 33.7279 274.492 33.5407V28.4495C274.492 28.2623 274.642 28.1125 274.829 28.1125H285.124C285.311 28.1125 285.461 28.2623 285.461 28.4495V33.5407ZM287.782 37.7896L287.37 38.295L287.426 37.6586C287.482 37.1345 287.501 36.5917 287.501 36.0489V25.9413C287.501 25.3985 287.482 24.8556 287.426 24.3315L287.407 24.0508L287.389 23.7513V23.6764L287.782 24.1818C289.316 26.091 290.159 28.5243 290.159 30.9764C290.159 33.4284 289.316 35.8804 287.782 37.7896Z" fill="#334155"></path><path d="M322.636 30.6955C322.542 30.6581 322.43 30.6207 322.43 30.5084C322.43 30.4335 322.467 30.3773 322.542 30.3399C322.673 30.2837 325.911 29.1232 325.911 25.3048C325.911 21.0559 323.047 18.529 318.218 18.529H306.52V43.4985H319.285C323.01 43.4985 327.016 40.8593 327.016 36.6104C327.016 32.5486 323.946 31.126 322.636 30.6955ZM312.416 23.6389C312.416 23.5453 312.491 23.4705 312.584 23.4705H317.226C318.761 23.4705 319.809 24.5 319.809 26.0348C319.809 27.2328 318.873 28.5243 317.114 28.5243H312.584C312.491 28.5243 312.416 28.4494 312.416 28.3558V23.6389ZM317.226 38.5757H312.584C312.491 38.5757 312.416 38.5009 312.416 38.4073V33.4283C312.416 33.3347 312.491 33.2599 312.584 33.2599H317.114C319.341 33.2599 320.614 34.2145 320.614 35.8991C320.614 37.6398 319.435 38.5757 317.226 38.5757ZM366.529 28.4681L365.63 28.2809C363.609 27.8504 361.643 27.3076 361.643 25.5669C361.643 23.8261 363.272 23.04 364.882 23.04C366.772 23.04 368.644 23.8823 370.066 25.3423L373.773 21.6736C372.182 19.9141 369.355 17.8926 364.788 17.8926C359.285 17.8926 355.579 21.0184 355.579 25.6792C355.579 30.602 359.453 32.455 362.71 33.1476L363.59 33.3347C366.753 34.0086 368.251 34.514 368.251 36.3109C368.251 37.9206 366.81 38.9875 364.676 38.9875C362.168 38.9875 359.94 37.8832 358.255 35.8055L354.456 39.5303C356.477 41.9262 359.154 44.0975 364.751 44.0975C369.524 44.0975 374.372 41.3272 374.372 36.0114C374.353 30.5645 370.647 29.3291 366.529 28.4681ZM415.85 18.529V27.6633C415.85 27.7568 415.775 27.8317 415.682 27.8317H408.007C407.914 27.8317 407.839 27.7568 407.839 27.6633V18.529H401.55V43.4985H407.839V33.6904C407.839 33.5968 407.914 33.5219 408.007 33.5219H415.682C415.775 33.5219 415.85 33.5968 415.85 33.6904V43.4985H422.177V18.529H415.85ZM388.896 38.3885C386.07 38.3885 383.019 36.0301 383.019 30.8453C383.019 26.1097 385.883 23.6389 388.709 23.6389C390.768 23.6389 392.21 24.5 393.351 26.4092L398.181 23.2084C395.71 19.5772 392.771 17.93 388.672 17.93C380.642 17.93 377.048 24.4251 377.048 30.8453C377.048 38.6506 381.802 44.0975 388.597 44.0975C393.651 44.0975 395.953 42.2444 398.368 38.8191L393.501 35.5434C392.415 37.3029 391.236 38.3885 388.896 38.3885ZM341.147 17.8926C334.278 17.8926 329.673 23.1523 329.673 30.995C329.673 38.8378 334.278 44.0975 341.147 44.0975C348.017 44.0975 352.621 38.8378 352.621 30.995C352.621 23.1523 348.017 17.8926 341.147 17.8926ZM341.147 38.3885C337.778 38.3885 335.607 35.4873 335.607 30.995C335.607 26.5215 337.778 23.6389 341.147 23.6389C344.535 23.6389 346.725 26.5215 346.725 30.995C346.725 35.4873 344.535 38.3885 341.147 38.3885Z" fill="#334155"></path><path d="M992.412 16.8258C989.314 15.4506 987.466 14.9166 985.632 14.9166C983.707 14.9166 982.474 15.606 982.474 16.6717C982.474 19.8872 993.381 18.9821 993.381 26.4193C993.381 30.52 989.94 32.9029 985.16 32.9029C981.41 32.9029 979.563 31.9326 977.436 30.8346V26.2337C980.504 28.2668 982.382 28.9841 984.749 28.9841C986.8 28.9841 987.906 28.2668 987.906 27.0148C987.906 23.5141 977 24.7961 977 17.1382C977 13.4453 980.19 11 985.16 11C987.558 11 989.722 11.5039 992.412 12.6605V16.8258ZM1007.68 31.9252C1005.86 32.5854 1004.33 32.8993 1002.79 32.8993C997.714 32.8993 994.43 29.9405 994.43 25.4394C994.43 21.0204 997.841 17.8981 1002.6 17.8981C1004.08 17.8981 1005.96 18.2751 1007.46 18.8354V22.2181C1006.27 21.5858 1004.89 21.2389 1003.76 21.2389C1001.04 21.2389 999.284 22.8774 999.284 25.4064C999.284 27.9705 1001.01 29.6582 1003.61 29.6582C1004.7 29.6582 1005.68 29.4073 1007.68 28.6563L1007.68 31.9252ZM1047.29 23.7818C1047.48 21.7736 1048.64 20.6133 1050.43 20.6133C1052.18 20.6133 1053.37 21.8066 1053.56 23.7818H1047.29ZM1050.11 17.9032C1045.66 17.9032 1042.48 21.0512 1042.48 25.4812C1042.48 29.9442 1045.78 32.8993 1050.87 32.8993C1051.99 32.8993 1054.72 32.8993 1057.32 30.9784V28.1539C1055.19 29.6684 1053.78 30.1899 1051.97 30.1899C1049.1 30.1899 1047.35 28.7076 1047.19 26.1772H1057.57C1057.79 20.8957 1054.32 17.9032 1050.11 17.9032ZM1059.33 32.636H1063.87V18.1694H1059.33V32.636ZM1076.49 28.6819C1075.55 29.5327 1074.76 29.8738 1073.79 29.8738C1071.66 29.8738 1070.3 28.115 1070.3 25.4797C1070.3 22.5914 1071.66 20.9265 1073.94 20.9265C1074.76 20.9265 1075.83 21.3035 1076.49 21.7758V28.6819ZM1076.49 11.267V18.8039C1075.27 18.2113 1074.05 17.8981 1072.73 17.8981C1068.59 17.8981 1065.72 20.958 1065.72 25.3851C1065.72 29.7168 1068.59 32.9029 1072.47 32.9029C1074.01 32.9029 1075.2 32.4995 1076.49 31.4668V32.6316H1081.03V11.267H1076.49ZM1087.75 23.7818C1087.94 21.7736 1089.1 20.6133 1090.88 20.6133C1092.64 20.6133 1093.84 21.8066 1094.03 23.7818H1087.75ZM1090.57 17.9032C1086.11 17.9032 1082.95 21.0512 1082.95 25.4812C1082.95 29.9442 1086.25 32.8993 1091.33 32.8993C1092.45 32.8993 1095.18 32.8993 1097.78 30.9784V28.1539C1095.65 29.6684 1094.25 30.1899 1092.42 30.1899C1089.57 30.1899 1087.81 28.7076 1087.65 26.1772H1098.03C1098.24 20.8957 1094.77 17.9032 1090.57 17.9032Z" fill="#334155"></path><path d="M1104.82 22.3118H1104.89C1106.24 19.301 1107.74 17.8891 1109.49 17.8891C1110.4 17.8891 1111.18 18.2347 1112.5 19.2084L1111.25 23.2194C1110.06 22.4676 1109.28 22.1532 1108.56 22.1532C1106.89 22.1532 1105.83 23.7227 1104.82 26.376V32.6167H1100.28V18.154H1104.82V22.3118ZM1064.08 12.0839C1064.5 13.2079 1063.74 14.7756 1062.37 15.5824C1061 16.3883 1059.55 16.1325 1059.12 15.0085C1058.69 13.8826 1059.46 12.3131 1060.83 11.5108C1062.2 10.7004 1063.65 10.9571 1064.08 12.0839Z" fill="#334155"></path><path d="M1024.03 23.4281C1024.03 19.5079 1021.36 17.9031 1018.74 17.9031C1016.95 17.9031 1015.48 18.6571 1014.16 20.3212H1014.1V11.2676H1009.56V32.5948H1014.1V23.4281C1015.16 21.8908 1016.07 21.2337 1017.14 21.2337C1018.55 21.2337 1019.49 22.2385 1019.49 24.3992V29.4813C1021.01 28.698 1022.56 28.2175 1024.03 28.0393V23.4281ZM1035.42 17.8979C1033.57 17.8979 1032.16 18.5859 1030.71 20.2398V18.1693H1026.17V28.0004C1027.75 28.1574 1029.75 28.8791 1030.71 30.071V23.3144C1031.91 21.5234 1032.76 20.9263 1033.88 20.9263C1035.17 20.9263 1036.15 21.7757 1036.15 23.8154V32.5984H1040.69V23.4391C1040.69 19.1793 1037.68 17.8979 1035.42 17.8979ZM1043.2 36.7527H1037.92V40.5021H1043.01V42.1112H1037.92V45.9794H1043.36V47.5864H1036.15V35.1472H1043.2L1043.2 36.7527ZM1047.51 47.5938H1049.13V35.1435H1047.51V47.5938ZM1057.13 40.6201C1058.27 40.6201 1058.98 41.4101 1059.04 42.6503H1054.92C1055.14 41.355 1055.89 40.6201 1057.13 40.6201ZM1054.89 43.7299H1060.65C1060.65 40.6935 1059.26 39.2288 1057.09 39.2288C1054.84 39.2288 1053.27 40.8944 1053.27 43.3794C1053.27 45.6501 1054.69 47.747 1057.23 47.747C1058.62 47.747 1059.52 47.439 1060.51 46.7796V45.2064C1059.55 45.8342 1058.62 46.1965 1057.64 46.1965C1056.07 46.1965 1055.14 45.3575 1054.89 43.7299ZM1071.2 41.5391C1070.28 40.9025 1069.66 40.7155 1068.95 40.7155C1067.47 40.7155 1066.44 41.8509 1066.44 43.5129C1066.44 45.2064 1067.53 46.2266 1069.22 46.2266C1069.91 46.2266 1070.57 46.0469 1071.39 45.6824V47.2762C1070.84 47.5329 1069.8 47.747 1068.95 47.747C1066.5 47.747 1064.8 46.0638 1064.8 43.6581C1064.8 40.9429 1066.35 39.2288 1068.84 39.2288C1069.78 39.2288 1070.42 39.4496 1071.21 39.7935L1071.2 41.5391ZM1078.57 39.3857H1081.16V40.8424H1078.57V45.0524C1078.57 46.0161 1079.27 46.2948 1079.74 46.2948C1080.32 46.2948 1080.93 46.0902 1081.58 45.6861V47.2021C1081.01 47.5145 1080.14 47.747 1079.61 47.747C1077.85 47.747 1076.96 46.6542 1076.96 45.1741V40.8424H1075.53V40.6619L1078.57 37.69V39.3857ZM1087.35 39.3857V41.2839H1087.38C1088.2 39.8317 1088.99 39.2288 1089.75 39.2288C1090.41 39.2288 1091.02 39.5376 1091.7 40.1786L1090.85 41.603C1090.35 41.1167 1089.72 40.7815 1089.33 40.7815C1088.22 40.7815 1087.35 41.9125 1087.35 43.3141V47.5938H1085.73V39.3857H1087.35ZM1108.27 41.5391C1107.33 40.9025 1106.71 40.7155 1106 40.7155C1104.52 40.7155 1103.51 41.8509 1103.51 43.5129C1103.51 45.2064 1104.6 46.2266 1106.27 46.2266C1106.97 46.2266 1107.62 46.0469 1108.45 45.6824V47.2762C1107.89 47.5329 1106.85 47.747 1106 47.747C1103.55 47.747 1101.85 46.0638 1101.85 43.6581C1101.85 40.9429 1103.41 39.2288 1105.89 39.2288C1106.84 39.2288 1107.47 39.4496 1108.27 39.7935L1108.27 41.5391ZM1095.99 47.5938H1097.6V39.3865H1095.99V47.5938Z" fill="#334155"></path><path d="M1097.66 36.4369C1097.81 36.8329 1097.54 37.3931 1097.05 37.6782C1096.56 37.9643 1096.04 37.8726 1095.9 37.4756C1095.75 37.075 1096.02 36.5194 1096.51 36.2333C1096.99 35.9436 1097.51 36.0362 1097.66 36.4369ZM1025.3 37.1006C1025.02 37.1006 1024.9 37.1474 1024.78 37.2776C1024.74 37.328 1024.72 37.3793 1024.7 37.482L1023.25 42.9792C1022.91 44.9073 1020.54 46.8326 1017.46 46.8326H1013.17L1013.91 44.0079H1016.67C1016.95 44.0079 1017.17 43.9034 1017.35 43.698C1017.42 43.6182 1017.51 43.4935 1017.52 43.3652L1018.67 38.562C1019 36.6331 1021.04 34.5024 1024.13 34.5024H1028.52L1027.96 37.1006H1025.3ZM1026.29 40.4507L1026.79 38.672H1031.25C1031.8 36.0931 1031.37 33.7039 1029.8 32.1389C1026.63 28.9713 1020.01 30.0476 1015.07 34.771C1014.3 35.5045 1013.65 36.2975 1013.06 37.108H1015.74L1015.12 38.8902H1011.91C1011.6 39.4522 1011.31 40.0097 1011.09 40.5753H1014.9L1014.29 42.3576H1010.55C1009.91 45.0805 1010.32 47.6201 1011.93 49.2328C1015.05 52.36 1021.66 51.2607 1026.6 46.5383C1027.46 45.7168 1028.17 44.8302 1028.82 43.9199H1025.36L1025.89 42.1412H1029.93C1030.22 41.5756 1030.5 41.0163 1030.71 40.4507H1026.29Z" fill="#334155"></path><path d="M698 13.502H704.717V20.2191H698V13.502Z" fill="#334155"></path><path d="M704.55 48.498V24.3068H698.191V48.498H704.55ZM746.813 48.737V42.8088C745.881 42.8088 745.092 42.761 744.518 42.6653C743.849 42.5697 743.347 42.3307 743.012 41.996C742.677 41.6614 742.462 41.1833 742.343 40.5618C742.247 39.9641 742.199 39.1753 742.199 38.2191V29.757H746.813V24.3068H742.199V14.8645H735.817V38.2669C735.817 40.251 735.984 41.9243 736.319 43.2629C736.654 44.5777 737.227 45.6534 738.016 46.4661C738.805 47.2789 739.857 47.8526 741.124 48.2112C742.415 48.5697 744.04 48.737 745.976 48.737H746.813ZM783.339 48.498V13H776.956V48.498H783.339ZM729.674 26.6733C727.905 24.761 725.419 23.8048 722.263 23.8048C720.733 23.8048 719.347 24.1155 718.08 24.7371C716.837 25.3586 715.761 26.2191 714.924 27.3187L714.566 27.7729V24.3068H708.279V48.498H714.614V35.6135V36.0677C714.685 33.7968 715.235 32.1235 716.287 31.0478C717.411 29.9004 718.773 29.3267 720.327 29.3267C722.168 29.3267 723.578 29.9004 724.51 31C725.419 32.0996 725.897 33.6534 725.897 35.6375V48.4741H732.327V34.753C732.351 31.3108 731.442 28.5857 729.674 26.6733ZM773.658 36.3546C773.658 34.6096 773.347 32.9841 772.749 31.4542C772.128 29.9482 771.267 28.6096 770.191 27.4622C769.092 26.3147 767.777 25.4303 766.247 24.7849C764.717 24.1394 763.02 23.8287 761.18 23.8287C759.434 23.8287 757.785 24.1633 756.255 24.8088C754.725 25.4781 753.387 26.3625 752.263 27.4861C751.14 28.6096 750.231 29.9482 749.586 31.4781C748.917 33.008 748.606 34.6574 748.606 36.4024C748.606 38.1474 748.917 39.7968 749.538 41.3267C750.16 42.8566 751.044 44.1952 752.144 45.3187C753.243 46.4422 754.606 47.3506 756.183 47.996C757.761 48.6653 759.506 49 761.371 49C766.773 49 770.12 46.5378 772.128 44.243L767.538 40.753C766.582 41.9004 764.287 43.4542 761.419 43.4542C759.626 43.4542 758.144 43.0478 757.02 42.2112C755.897 41.3984 755.132 40.251 754.725 38.8406L754.654 38.6255H773.658V36.3546ZM754.701 34.1315C754.701 32.3625 756.733 29.2789 761.108 29.255C765.482 29.255 767.538 32.3386 767.538 34.1076L754.701 34.1315ZM790.606 45.3426C790.486 45.0558 790.319 44.8167 790.104 44.6016C789.889 44.3865 789.65 44.2191 789.363 44.0996C789.076 43.9801 788.765 43.9084 788.454 43.9084C788.12 43.9084 787.833 43.9801 787.546 44.0996C787.259 44.2191 787.02 44.3865 786.805 44.6016C786.59 44.8167 786.423 45.0558 786.303 45.3426C786.184 45.6295 786.112 45.9402 786.112 46.251C786.112 46.5857 786.184 46.8725 786.303 47.1594C786.423 47.4462 786.59 47.6853 786.805 47.9004C787.02 48.1155 787.259 48.2829 787.546 48.4024C787.833 48.5219 788.144 48.5936 788.454 48.5936C788.789 48.5936 789.076 48.5219 789.363 48.4024C789.65 48.2829 789.889 48.1155 790.104 47.9004C790.319 47.6853 790.486 47.4462 790.606 47.1594C790.725 46.8725 790.797 46.5617 790.797 46.251C790.797 45.9402 790.725 45.6295 790.606 45.3426ZM790.223 47.0159C790.128 47.255 789.984 47.4701 789.817 47.6374C789.65 47.8048 789.435 47.9482 789.195 48.0438C788.956 48.1394 788.717 48.1872 788.431 48.1872C788.168 48.1872 787.905 48.1394 787.666 48.0438C787.427 47.9482 787.211 47.8048 787.044 47.6374C786.877 47.4701 786.733 47.255 786.638 47.0159C786.542 46.7769 786.494 46.5378 786.494 46.251C786.494 45.988 786.542 45.7251 786.638 45.4861C786.733 45.247 786.877 45.0319 787.044 44.8645C787.211 44.6972 787.427 44.5538 787.666 44.4582C787.905 44.3625 788.144 44.3147 788.431 44.3147C788.693 44.3147 788.956 44.3625 789.195 44.4582C789.435 44.5538 789.65 44.6972 789.817 44.8645C789.984 45.0319 790.128 45.247 790.223 45.4861C790.319 45.7251 790.367 45.9641 790.367 46.251C790.391 46.5378 790.319 46.7769 790.223 47.0159ZM788.885 46.4422C789.076 46.4183 789.219 46.3466 789.339 46.2271C789.458 46.1076 789.53 45.9402 789.53 45.7012C789.53 45.4382 789.458 45.247 789.291 45.1036C789.148 44.9602 788.885 44.8884 788.574 44.8884H787.522V47.5896H788.024V46.49H788.383L789.052 47.5896H789.578L788.885 46.4422ZM788.622 46.0598H788.024V45.2948H788.622C788.693 45.2948 788.765 45.3187 788.837 45.3426C788.909 45.3665 788.956 45.4143 788.98 45.4621C789.004 45.51 789.028 45.5817 789.028 45.6773C789.028 45.7729 789.004 45.8446 788.98 45.8924C788.933 45.9402 788.885 45.988 788.837 46.0119C788.765 46.0359 788.693 46.0598 788.622 46.0598Z" fill="#334155"></path></svg>